# Blender v2.77 (sub 0) OBJ File: ''
# www.blender.org
mtllib cube_structure.mtl
o Cube_Cube.001
v -1.000000 -1.000000 1.000000
v -1.000000 1.000000 1.000000
v -1.000000 -1.000000 -1.000000
v -1.000000 1.000000 -1.000000
v 1.000000 -1.000000 1.000000
v 1.000000 1.000000 1.000000
v 1.000000 -1.000000 -1.000000
v 1.000000 1.000000 -1.000000
v -1.000000 3.000000 1.000000
v -1.000000 3.000000 -1.000000
v 1.000000 3.000000 -1.000000
v 1.000000 3.000000 1.000000
v 3.000000 1.000000 -1.000000
v 3.000000 1.000000 1.000000
v 3.000000 3.000000 -1.000000
v 3.000000 3.000000 1.000000
v 1.000000 3.000000 3.000000
v 1.000000 1.000000 3.000000
v 3.000000 3.000000 3.000000
v 3.000000 1.000000 3.000000
vn -1.0000 0.0000 0.0000
vn 0.0000 0.0000 -1.0000
vn 1.0000 0.0000 0.0000
vn 0.0000 0.0000 1.0000
vn 0.0000 -1.0000 0.0000
vn 0.0000 1.0000 0.0000
usemtl None
s off
f 2//1 4//1 3//1 1//1
f 4//2 8//2 7//2 3//2
f 8//3 6//3 5//3 7//3
f 6//4 2//4 1//4 5//4
f 1//5 3//5 7//5 5//5
f 6//5 8//5 13//5 14//5
f 12//6 11//6 10//6 9//6
f 4//1 2//1 9//1 10//1
f 2//4 6//4 12//4 9//4
f 8//2 4//2 10//2 11//2
f 14//3 13//3 15//3 16//3
f 8//2 11//2 15//2 13//2
f 11//6 12//6 16//6 15//6
f 16//6 12//6 17//6 19//6
f 17//4 18//4 20//4 19//4
f 6//5 14//5 20//5 18//5
f 14//3 16//3 19//3 20//3
f 12//1 6//1 18//1 17//1
