# Blender v2.77 (sub 0) OBJ File: 'simple_model.blend'
# www.blender.org
mtllib 4.mtl
o 4_Cube.004
v 0.000000 -3.000000 -2.000000
v 0.000000 -3.000000 0.000000
v -2.000000 -3.000000 -0.000000
v -2.000000 -3.000000 -2.000000
v 0.000000 0.000000 -2.000000
v -0.000001 0.000000 0.000001
v -2.000000 0.000000 -0.000000
v -2.000000 0.000000 -2.000000
v -2.000000 0.000000 -2.000000
vt 0.6817 0.1278
vt 0.5524 0.0000
vt 0.6817 0.0000
vt 0.5474 0.5639
vt 0.6767 0.4362
vt 0.6767 0.5639
vt 0.0000 0.4252
vt 0.1293 0.5530
vt 0.0000 0.5530
vt 0.2887 0.5639
vt 0.1594 0.6917
vt 0.1594 0.5639
vt 0.6817 0.0000
vt 0.8110 0.0000
vt 0.6817 0.0000
vt 0.1293 0.4252
vt 0.2887 0.6917
vt 0.5524 0.1278
vt 0.5474 0.4362
vn 0.0000 1.0000 0.0000
vn 1.0000 -0.0000 0.0000
vn -0.0000 -0.0000 1.0000
vn 0.0000 0.0000 -1.0000
vn -1.0000 -0.0000 -0.0000
vn 0.0000 -1.0000 0.0000
g 4_Cube.004_Material_2.003
usemtl Material_2.003
s off
f 8/1/1 6/2/1 5/3/1
f 5/4/2 2/5/2 1/6/2
f 6/7/3 3/8/3 2/9/3
g 4_Cube.004_Material.007
usemtl Material.007
f 1/10/4 8/11/4 5/12/4
g 4_Cube.004_Material_2.003
usemtl Material_2.003
f 8/13/3 4/14/3 9/15/3
g 4_Cube.004_Material.007
usemtl Material.007
f 9/15/5 3/8/5 7/16/5
f 1/10/6 3/8/6 4/17/6
g 4_Cube.004_Material_2.003
usemtl Material_2.003
f 8/1/1 7/18/1 6/2/1
f 5/4/2 6/19/2 2/5/2
f 6/7/3 7/16/3 3/8/3
g 4_Cube.004_Material.007
usemtl Material.007
f 1/10/4 4/17/4 8/11/4
f 9/15/5 4/14/5 3/8/5
f 1/10/6 2/9/6 3/8/6
