# Blender v2.77 (sub 0) OBJ File: 'simple_model.blend'
# www.blender.org
mtllib 6_original.mtl
o 6_original_Cube.000
v 10.000000 -2.000000 -0.001000
v 10.000000 -2.000000 1.999000
v 8.000000 -2.000000 -0.001000
v 10.000000 0.000000 -0.000999
v 9.999999 0.000000 1.999001
v 8.000000 0.000000 -0.001000
vt 0.2500 0.0001
vt 0.7497 0.0001
vt 0.4999 0.2500
vt 0.2500 0.4999
vt 0.9996 0.2500
vt 0.7497 0.4999
vt 0.2500 0.9999
vt 0.6034 0.5001
vt 0.6034 0.9999
vt 0.0001 0.7500
vt 0.2500 0.5001
vt 0.0001 0.2500
vn 0.0000 -1.0000 0.0000
vn 1.0000 0.0000 0.0000
vn 0.0000 0.0000 -1.0000
vn -0.7071 0.0000 0.7071
vn 0.0000 1.0000 0.0000
g 6_original_Cube.000_Material.004
usemtl Material.004
s off
f 2/1/1 3/2/1 1/3/1
g 6_original_Cube.000_Material_2_zzz
usemtl Material_2_zzz
f 4/4/2 2/1/2 1/3/2
f 1/3/3 6/5/3 4/6/3
g 6_original_Cube.000_Material.004
usemtl Material.004
f 5/7/4 3/8/4 2/9/4
f 5/7/5 4/10/5 6/11/5
g 6_original_Cube.000_Material_2_zzz
usemtl Material_2_zzz
f 4/4/2 5/12/2 2/1/2
f 1/3/3 3/2/3 6/5/3
g 6_original_Cube.000_Material.004
usemtl Material.004
f 5/7/4 6/11/4 3/8/4
