# Blender v2.77 (sub 0) OBJ File: 'simple_model.blend'
# www.blender.org
mtllib 7_original.mtl
o 7_original_Cube.001
v 12.000000 -2.000000 -0.001000
v 10.000000 -2.000000 1.999000
v 10.000000 -2.000000 -0.001000
v 12.000000 0.000000 -0.000999
v 11.999999 0.000000 1.999001
v 10.000000 0.000000 1.999000
v 10.000000 0.000000 -0.001000
v 12.000000 -2.000000 0.999000
v 11.000000 -2.000000 1.999000
v 12.000000 -1.000000 1.999000
vt 0.5474 0.5639
vt 0.4181 0.4362
vt 0.5474 0.4362
vt 0.4181 0.4362
vt 0.4181 0.5639
vt 0.3534 0.5639
vt 0.8060 0.5639
vt 0.6767 0.4362
vt 0.8060 0.4362
vt 0.6767 0.5639
vt 0.5474 0.6917
vt 0.5474 0.5639
vt 0.9353 0.3723
vt 0.8707 0.3084
vt 0.9050 0.1865
vt 1.0630 0.0955
vt 0.9697 0.2504
vt 0.9353 0.4362
vt 0.4181 0.5639
vt 0.2887 0.5000
vt 0.2887 0.4362
vt 0.6767 0.5639
vt 0.6767 0.6917
vt 1.0537 0.2537
vt 0.8833 0.1162
vt 0.8060 0.3084
vn 0.0000 1.0000 0.0000
vn 0.0000 0.0000 1.0000
vn -1.0000 -0.0000 0.0000
vn 0.0000 0.0000 -1.0000
vn 0.5774 -0.5774 0.5774
vn 1.0000 0.0000 0.0000
vn 0.0000 -1.0000 0.0000
g 7_original_Cube.001_Material.008
usemtl Material.008
s off
f 7/1/1 5/2/1 4/3/1
f 6/4/2 2/5/2 9/6/2
g 7_original_Cube.001_Material_2_zzz
usemtl Material_2_zzz
f 2/7/3 7/8/3 3/9/3
f 1/10/4 7/11/4 4/12/4
g 7_original_Cube.001_Material.008
usemtl Material.008
f 9/13/5 8/14/5 10/15/5
f 4/16/6 10/15/6 8/17/6
f 9/13/7 2/18/7 3/9/7
f 7/1/1 6/19/1 5/2/1
f 9/6/2 10/20/2 6/4/2
f 5/21/2 6/4/2 10/20/2
g 7_original_Cube.001_Material_2_zzz
usemtl Material_2_zzz
f 2/7/3 6/22/3 7/8/3
f 1/10/4 3/23/4 7/11/4
g 7_original_Cube.001_Material.008
usemtl Material.008
f 8/17/6 1/24/6 4/16/6
f 4/16/6 5/25/6 10/15/6
f 3/9/7 1/26/7 8/14/7
f 8/14/7 9/13/7 3/9/7
