# Blender v2.77 (sub 0) OBJ File: 'simple_model.blend'
# www.blender.org
mtllib 3.001.mtl
o 3.001_Cube.009
v -0.000000 0.000000 -0.000000
v 0.000000 0.000000 -2.000000
v 2.000000 0.000000 -2.000000
v 2.000000 0.000000 0.000000
v -0.000001 2.000000 -0.000001
v 0.000001 2.000000 -2.000001
v 2.000000 2.000000 -2.000000
v 2.000000 2.000000 0.000000
v 0.000000 0.000000 -1.000000
v 1.000000 0.000000 0.000000
v -0.000000 1.000000 -0.000000
v 1.000000 0.000000 -2.000000
v 0.000001 1.000000 -2.000000
v 2.000000 0.000000 -1.000000
v 2.000000 1.000000 -2.000000
v 2.000000 1.000000 0.000000
v 0.000000 2.000000 -1.000001
v 1.000000 2.000000 -0.000000
v 1.000001 2.000000 -2.000000
v 2.000000 2.000000 -1.000000
v 0.000000 0.000000 -1.500000
v 1.500000 0.000000 0.000000
v -0.000000 1.500000 -0.000001
v 1.500000 0.000000 -2.000000
v 0.000001 1.500000 -2.000000
v 2.000000 0.000000 -0.500000
v 2.000000 1.500000 -2.000000
v 2.000000 1.500000 0.000000
v 0.000000 2.000000 -1.500001
v 1.500000 2.000000 -0.000000
v 1.500001 2.000000 -2.000000
v 2.000000 2.000000 -0.500000
v -0.000000 0.000000 -0.500000
v 0.500000 0.000000 -0.000000
v -0.000000 0.500000 -0.000000
v 0.500000 0.000000 -2.000000
v 0.000000 0.500000 -2.000000
v 2.000000 0.000000 -1.500000
v 2.000000 0.500000 -2.000000
v 2.000000 0.500000 0.000000
v -0.000000 2.000000 -0.500001
v 0.499999 2.000000 -0.000000
v 0.500001 2.000000 -2.000000
v 2.000000 2.000000 -1.500000
v 1.500000 1.000000 0.000000
v 0.500000 1.000000 -0.000000
v 1.500000 1.000000 -2.000000
v 0.500000 1.000000 -2.000000
v 0.500001 1.500000 -2.000000
v 0.500000 1.500000 -0.000000
v 1.500000 1.500000 -2.000000
v 0.000000 0.000000 -1.750000
v 1.750000 0.000000 0.000000
v -0.000001 1.750000 -0.000001
v 1.750000 0.000000 -2.000000
v 0.000001 1.750000 -2.000000
v 2.000000 0.000000 -0.249999
v 2.000000 1.750000 -2.000000
v 2.000000 1.750000 0.000000
v 0.000001 2.000000 -1.750001
v 1.750000 2.000000 0.000000
v 1.750001 2.000000 -2.000000
v 2.000000 2.000000 -0.250000
v 0.000000 0.000000 -0.750000
v 0.750000 0.000000 -0.000000
v -0.000000 0.750000 -0.000000
v 0.750000 0.000000 -2.000000
v 0.000000 0.750000 -2.000000
v 2.000000 0.000000 -1.250000
v 2.000000 0.750000 -2.000000
v 2.000000 0.750000 0.000000
v 0.000000 2.000000 -0.750001
v 0.750000 2.000000 -0.000000
v 0.750001 2.000000 -2.000000
v 2.000000 2.000000 -1.250000
v 1.000000 1.750000 -0.000000
v 1.000000 0.750000 0.000000
v 0.000000 0.000000 -1.250000
v 1.250000 0.000000 0.000000
v -0.000000 1.250000 -0.000001
v 1.250000 0.000000 -2.000000
v 0.000001 1.250000 -2.000000
v 2.000000 0.000000 -0.750000
v 2.000000 1.250000 -2.000000
v 2.000000 1.250000 0.000000
v 0.000000 2.000000 -1.250001
v 1.250000 2.000000 -0.000000
v 1.250001 2.000000 -2.000000
v 2.000000 2.000000 -0.750000
v -0.000000 0.000000 -0.250000
v 0.250000 0.000000 -0.000000
v -0.000000 0.250000 -0.000000
v 0.250000 0.000000 -2.000000
v 0.000000 0.250000 -2.000000
v 2.000000 0.000000 -1.750000
v 2.000000 0.250000 -2.000000
v 2.000000 0.250000 0.000000
v -0.000000 2.000000 -0.250001
v 0.249999 2.000000 -0.000001
v 0.250001 2.000000 -2.000000
v 2.000000 2.000000 -1.750000
v 1.000000 0.750000 -2.000000
v 1.000001 1.750000 -2.000000
v 0.500001 1.250000 -2.000000
v 0.500001 1.750000 -2.000000
v 0.500000 0.750000 -2.000000
v 1.500000 0.750000 -2.000000
v 0.500000 0.750000 -0.000000
v 0.499999 1.750000 -0.000000
v 0.500000 1.250000 -0.000000
v 1.500000 1.750000 0.000000
v 1.500000 1.250000 0.000000
v 1.500000 0.750000 0.000000
v 1.500000 1.250000 -2.000000
v 1.500001 1.750000 -2.000000
v 1.250001 1.750000 -2.000000
v 1.250000 0.750000 0.000000
v 1.250000 1.750000 -0.000000
v 0.750000 1.750000 -0.000000
v 0.750000 0.750000 -0.000000
v 1.250000 0.750000 -2.000000
v 0.750001 1.750000 -2.000000
v 0.750000 0.750000 -2.000000
vt 0.2887 0.1966
vt 0.3211 0.1806
vt 0.2887 0.2126
vt 0.6254 0.9472
vt 0.6416 0.8194
vt 0.6578 0.8194
vt 0.0323 0.8085
vt 0.0000 0.7765
vt 0.0000 0.7606
vt 0.1594 0.2011
vt 0.1594 0.2331
vt 0.1594 0.2171
vt 0.2564 0.9152
vt 0.2887 0.8993
vt 0.2887 0.9152
vt 0.1594 0.9152
vt 0.1918 0.9152
vt 0.1918 0.9312
vt 0.2937 0.0958
vt 0.2937 0.0798
vt 0.3261 0.1278
vt 0.1756 0.5320
vt 0.1594 0.5479
vt 0.1594 0.5320
vt 0.0647 0.8085
vt 0.0808 0.8085
vt 0.1293 0.8724
vt 0.2241 0.5320
vt 0.2079 0.5639
vt 0.2079 0.5320
vt 0.9677 0.3084
vt 0.9838 0.3084
vt 0.9677 0.4362
vt 0.9838 0.1806
vt 1.0000 0.1806
vt 0.9838 0.3084
vt 0.9677 0.4362
vt 0.9838 0.4362
vt 0.9838 0.5639
vt 0.4181 0.3084
vt 0.4019 0.3084
vt 0.4181 0.2924
vt 0.3696 0.3084
vt 0.3534 0.3084
vt 0.4181 0.2445
vt 0.3857 0.3084
vt 0.2887 0.2445
vt 0.4181 0.2765
vt 0.4181 0.2605
vt 0.3211 0.3084
vt 0.3049 0.3084
vt 0.2887 0.2924
vt 0.4181 0.2126
vt 0.4181 0.2286
vt 0.3857 0.1806
vt 0.3534 0.1806
vt 0.2887 0.3084
vt 0.2887 0.2765
vt 0.2887 0.2605
vt 0.3696 0.1806
vt 0.4019 0.1806
vt 0.4181 0.1806
vt 0.4181 0.1966
vt 0.3372 0.3084
vt 0.2887 0.2286
vt 0.2887 0.1806
vt 0.3049 0.1806
vt 0.3372 0.1806
vt 0.6739 0.8194
vt 0.6901 0.9472
vt 0.6901 0.8194
vt 0.6254 0.8194
vt 0.0808 0.6807
vt 0.0970 0.6807
vt 0.1293 0.7127
vt 0.1132 0.6807
vt 0.1293 0.6807
vt 0.1293 0.6967
vt 0.1293 0.7286
vt 0.0647 0.6807
vt 0.1293 0.7446
vt 0.0647 0.8085
vt 0.1293 0.7606
vt 0.1293 0.7765
vt 0.0808 0.8085
vt 0.0323 0.6807
vt 0.0485 0.6807
vt 0.0000 0.7127
vt 0.1293 0.7925
vt 0.1293 0.8085
vt 0.1132 0.8085
vt 0.0000 0.7446
vt 0.0162 0.6807
vt 0.0000 0.6967
vt 0.0000 0.6807
vt 0.0000 0.7286
vt 0.0970 0.8085
vt 0.0000 0.7925
vt 0.0162 0.8085
vt 0.0000 0.8085
vt 0.0485 0.8085
vt 0.1594 0.1692
vt 0.2726 0.9472
vt 0.2564 0.9472
vt 0.2564 0.9312
vt 0.2241 0.9472
vt 0.2079 0.9472
vt 0.2079 0.9312
vt 0.2887 0.9472
vt 0.2887 0.9312
vt 0.1918 0.9472
vt 0.2402 0.9472
vt 0.2241 0.9312
vt 0.2887 0.8833
vt 0.2564 0.8993
vt 0.2402 0.9312
vt 0.2887 0.8514
vt 0.2887 0.8673
vt 0.2564 0.8673
vt 0.2564 0.8833
vt 0.2402 0.8673
vt 0.2402 0.8194
vt 0.2241 0.8673
vt 0.2079 0.8673
vt 0.2079 0.8194
vt 0.2887 0.8354
vt 0.2726 0.8194
vt 0.2887 0.8194
vt 0.2564 0.8194
vt 0.1918 0.8673
vt 0.1918 0.8833
vt 0.1594 0.8833
vt 0.2241 0.8194
vt 0.1918 0.8993
vt 0.1756 0.8194
vt 0.1918 0.8194
vt 0.1594 0.8993
vt 0.1756 0.9472
vt 0.1594 0.9472
vt 0.1594 0.9312
vt 0.1594 0.8354
vt 0.1594 0.8194
vt 0.1594 0.8673
vt 0.1594 0.8514
vt 0.4231 0.0798
vt 0.4231 0.0958
vt 0.3907 0.1278
vt 0.4231 0.1118
vt 0.4231 0.1278
vt 0.4069 0.1278
vt 0.3746 0.1278
vt 0.4231 0.0479
vt 0.4231 0.0639
vt 0.3746 0.0000
vt 0.3584 0.1278
vt 0.3422 0.1278
vt 0.4231 0.0319
vt 0.4069 0.0000
vt 0.4231 0.0000
vt 0.4231 0.0160
vt 0.3099 0.1278
vt 0.2937 0.1278
vt 0.2937 0.1118
vt 0.3907 0.0000
vt 0.3422 0.0000
vt 0.3584 0.0000
vt 0.2937 0.0639
vt 0.3099 0.0000
vt 0.3261 0.0000
vt 0.2937 0.0319
vt 0.2937 0.0160
vt 0.2937 0.0000
vt 0.2937 0.0479
vt 0.2887 0.4841
vt 0.2887 0.5000
vt 0.2402 0.5000
vt 0.2887 0.5320
vt 0.2887 0.5479
vt 0.2726 0.5639
vt 0.2887 0.4681
vt 0.2402 0.4841
vt 0.2887 0.5639
vt 0.2887 0.4521
vt 0.2402 0.4681
vt 0.2887 0.5160
vt 0.2402 0.5320
vt 0.2564 0.5639
vt 0.2402 0.5639
vt 0.2726 0.4362
vt 0.2887 0.4362
vt 0.2241 0.5639
vt 0.2402 0.5160
vt 0.2241 0.4362
vt 0.2402 0.4362
vt 0.2241 0.4681
vt 0.2564 0.4362
vt 0.2079 0.4362
vt 0.1594 0.4362
vt 0.1756 0.4362
vt 0.1594 0.4521
vt 0.1756 0.4681
vt 0.1594 0.4841
vt 0.1594 0.4681
vt 0.1756 0.4841
vt 0.1918 0.4362
vt 0.2079 0.4681
vt 0.1918 0.4681
vt 0.1594 0.5160
vt 0.1594 0.5000
vt 0.1756 0.5160
vt 0.1756 0.5000
vt 0.1918 0.5639
vt 0.1594 0.5639
vt 0.1756 0.5639
vt 0.1293 0.8564
vt 0.1293 0.8883
vt 0.1293 0.9043
vt 0.0808 0.9362
vt 0.1293 0.9203
vt 0.1293 0.9362
vt 0.1132 0.9362
vt 0.0970 0.9362
vt 0.0647 0.9362
vt 0.0485 0.9362
vt 0.0323 0.9362
vt 0.0000 0.9043
vt 0.0162 0.9362
vt 0.0000 0.9362
vt 0.0000 0.9203
vt 0.0000 0.8883
vt 0.0000 0.8724
vt 0.0000 0.8564
vt 0.0000 0.8404
vt 0.0323 0.8085
vt 0.0000 0.8244
vt 0.0162 0.8085
vt 0.0000 0.8085
vt 0.1293 0.8404
vt 0.0485 0.8085
vt 0.1293 0.8244
vt 0.1132 0.8085
vt 0.1293 0.8085
vt 0.0970 0.8085
vt 1.0000 0.3084
vt 1.0000 0.4362
vt 0.9838 0.4362
vt 0.9515 0.4362
vt 0.9353 0.4362
vt 0.9353 0.3084
vt 0.9515 0.3084
vt 0.9677 0.3084
vt 0.9677 0.1806
vt 0.9515 0.3084
vt 0.9353 0.3084
vt 0.9353 0.1806
vt 0.9515 0.1806
vt 1.0000 0.3084
vt 0.9515 0.5639
vt 0.9353 0.5639
vt 0.9353 0.4362
vt 0.9515 0.4362
vt 1.0000 0.4362
vt 1.0000 0.5639
vt 0.9677 0.5639
vn 1.0000 0.0000 0.0000
vn -1.0000 0.0000 -0.0000
vn 0.0000 1.0000 0.0000
vn 0.0000 0.0000 -1.0000
vn -0.0000 0.0000 1.0000
vn 0.0000 -1.0000 0.0000
g 3.001_Cube.009_Material.005
usemtl Material.005
s off
f 63/1/1 28/2/1 32/3/1
f 111/4/2 51/5/2 114/6/2
f 41/7/3 42/8/3 73/9/3
g 3.001_Cube.009_Material_2
usemtl Material_2
f 112/10/2 113/11/2 45/12/2
g 3.001_Cube.009_Material.005
usemtl Material.005
f 49/13/4 82/14/4 25/15/4
f 27/16/4 51/17/4 115/18/4
g 3.001_Cube.009_Material_2
usemtl Material_2
f 25/19/2 82/20/2 29/21/2
f 111/22/5 61/23/5 30/24/5
f 14/25/6 83/26/6 10/27/6
f 45/28/5 85/29/5 112/30/5
g 3.001_Cube.009_Material.005
usemtl Material.005
f 77/31/3 117/32/3 102/33/3
f 46/34/1 108/35/1 48/36/1
f 76/37/6 119/38/6 122/39/6
f 3/40/1 96/41/1 95/42/1
f 70/43/1 15/44/1 14/45/1
f 95/42/1 96/41/1 39/46/1
f 15/44/1 20/47/1 14/45/1
f 95/42/1 39/46/1 38/48/1
f 14/45/1 69/49/1 70/43/1
f 38/48/1 39/46/1 70/43/1
f 27/50/1 58/51/1 101/52/1
f 38/48/1 70/43/1 69/49/1
f 26/53/1 83/54/1 40/55/1
f 14/45/1 20/47/1 16/56/1
f 58/51/1 7/57/1 101/52/1
f 44/58/1 75/59/1 27/50/1
f 27/50/1 101/52/1 44/58/1
f 83/54/1 71/60/1 40/55/1
f 97/61/1 4/62/1 57/63/1
f 57/63/1 26/53/1 97/61/1
f 27/50/1 75/59/1 84/64/1
f 89/65/1 32/3/1 28/2/1
f 75/59/1 20/47/1 84/64/1
f 97/61/1 26/53/1 40/55/1
f 16/56/1 71/60/1 14/45/1
f 83/54/1 14/45/1 71/60/1
f 20/47/1 15/44/1 84/64/1
f 63/1/1 8/66/1 59/67/1
f 28/2/1 85/68/1 89/65/1
f 63/1/1 59/67/1 28/2/1
f 20/47/1 89/65/1 16/56/1
f 85/68/1 16/56/1 89/65/1
f 114/6/2 47/69/2 113/70/2
f 107/71/2 113/70/2 47/69/2
f 111/4/2 115/72/2 51/5/2
f 114/6/2 113/70/2 111/4/2
f 75/73/3 44/74/3 31/75/3
f 101/76/3 7/77/3 62/78/3
f 31/75/3 88/79/3 75/73/3
f 101/76/3 62/78/3 31/75/3
f 20/80/3 19/81/3 17/82/3
f 101/76/3 31/75/3 44/74/3
f 74/83/3 43/84/3 86/85/3
f 88/79/3 19/81/3 75/73/3
f 32/86/3 89/87/3 30/88/3
f 75/73/3 19/81/3 20/80/3
f 100/89/3 6/90/3 60/91/3
f 20/80/3 17/82/3 18/92/3
f 63/93/3 32/86/3 30/88/3
f 61/94/3 8/95/3 63/93/3
f 18/92/3 87/96/3 20/80/3
f 30/88/3 61/94/3 63/93/3
f 89/87/3 87/96/3 30/88/3
f 100/89/3 60/91/3 29/97/3
f 86/85/3 17/82/3 74/83/3
f 100/89/3 29/97/3 43/84/3
f 89/87/3 20/80/3 87/96/3
f 73/9/3 18/92/3 17/82/3
f 99/98/3 42/8/3 98/99/3
f 98/99/3 5/100/3 99/98/3
f 72/101/3 41/7/3 73/9/3
f 29/97/3 86/85/3 43/84/3
f 73/9/3 17/82/3 72/101/3
f 98/99/3 42/8/3 41/7/3
f 17/82/3 19/81/3 74/83/3
g 3.001_Cube.009_Material_2
usemtl Material_2
f 112/10/4 111/102/4 113/11/4
g 3.001_Cube.009_Material.005
usemtl Material.005
f 100/103/4 43/104/4 105/105/4
f 19/106/4 88/107/4 116/108/4
f 6/109/4 100/103/4 56/110/4
f 88/107/4 31/111/4 115/18/4
f 56/110/4 100/103/4 105/105/4
f 74/112/4 19/106/4 103/113/4
f 116/108/4 103/113/4 19/106/4
f 88/107/4 115/18/4 116/108/4
f 25/15/4 56/110/4 105/105/4
f 13/114/4 82/14/4 104/115/4
f 74/112/4 103/113/4 122/116/4
f 74/112/4 122/116/4 105/105/4
f 37/117/4 68/118/4 106/119/4
f 48/120/4 106/119/4 68/118/4
f 49/13/4 104/115/4 82/14/4
f 48/120/4 68/118/4 13/114/4
f 43/104/4 74/112/4 105/105/4
f 104/115/4 48/120/4 13/114/4
f 25/15/4 105/105/4 49/13/4
f 106/119/4 123/121/4 67/122/4
f 102/123/4 121/124/4 81/125/4
f 37/117/4 106/119/4 94/126/4
f 93/127/4 2/128/4 94/126/4
f 94/126/4 106/119/4 36/129/4
f 107/130/4 47/131/4 15/132/4
f 123/121/4 102/123/4 67/122/4
f 36/129/4 93/127/4 94/126/4
f 81/125/4 12/133/4 102/123/4
f 67/122/4 36/129/4 106/119/4
f 47/131/4 114/134/4 15/132/4
f 67/122/4 102/123/4 12/133/4
f 55/135/4 24/136/4 107/130/4
f 81/125/4 121/124/4 107/130/4
f 114/134/4 84/137/4 15/132/4
f 115/18/4 31/111/4 62/138/4
f 62/138/4 7/139/4 58/140/4
f 27/16/4 84/137/4 51/17/4
f 62/138/4 58/140/4 115/18/4
f 51/17/4 84/137/4 114/134/4
f 24/136/4 81/125/4 107/130/4
f 96/141/4 3/142/4 55/135/4
f 15/132/4 70/143/4 107/130/4
f 39/144/4 96/141/4 55/135/4
f 55/135/4 107/130/4 39/144/4
f 58/140/4 27/16/4 115/18/4
f 70/143/4 39/144/4 107/130/4
g 3.001_Cube.009_Material_2
usemtl Material_2
f 80/145/2 23/146/2 41/147/2
f 54/148/2 5/149/2 98/150/2
f 41/147/2 72/151/2 80/145/2
f 54/148/2 98/150/2 41/147/2
f 66/152/2 11/153/2 64/154/2
f 23/146/2 54/148/2 41/147/2
f 17/155/2 86/156/2 82/20/2
f 80/145/2 72/151/2 17/155/2
f 35/157/2 66/152/2 64/154/2
f 90/158/2 1/159/2 92/160/2
f 92/160/2 35/157/2 90/158/2
f 80/145/2 17/155/2 11/153/2
f 60/161/2 6/162/2 56/163/2
f 86/156/2 29/21/2 82/20/2
f 90/158/2 35/157/2 33/164/2
f 64/154/2 33/164/2 35/157/2
f 78/165/2 9/166/2 13/167/2
f 52/168/2 21/169/2 37/170/2
f 94/171/2 2/172/2 52/168/2
f 13/167/2 68/173/2 78/165/2
f 37/170/2 94/171/2 52/168/2
f 21/169/2 78/165/2 37/170/2
f 68/173/2 37/170/2 78/165/2
f 56/163/2 25/19/2 60/161/2
f 82/20/2 13/167/2 17/155/2
f 64/154/2 11/153/2 9/166/2
f 13/167/2 9/166/2 17/155/2
f 60/161/2 25/19/2 29/21/2
f 11/153/2 17/155/2 9/166/2
f 65/174/5 10/175/5 77/176/5
f 22/177/5 53/178/5 97/179/5
f 34/180/5 65/174/5 120/181/5
f 53/178/5 4/182/5 97/179/5
f 91/183/5 34/180/5 108/184/5
f 79/185/5 22/177/5 113/186/5
f 40/187/5 71/188/5 113/186/5
f 22/177/5 97/179/5 40/187/5
f 92/189/5 1/190/5 91/183/5
f 10/175/5 79/185/5 77/176/5
f 71/188/5 16/191/5 45/28/5
f 113/186/5 117/192/5 79/185/5
f 71/188/5 45/28/5 113/186/5
f 92/189/5 91/183/5 108/184/5
f 11/193/5 66/194/5 46/195/5
f 35/196/5 92/189/5 108/184/5
f 40/187/5 113/186/5 22/177/5
f 77/176/5 120/181/5 65/174/5
f 79/185/5 117/192/5 77/176/5
f 80/197/5 11/193/5 46/195/5
f 5/198/5 54/199/5 99/200/5
f 54/199/5 109/201/5 99/200/5
f 73/202/5 42/203/5 119/204/5
f 54/199/5 23/205/5 109/201/5
f 34/180/5 120/181/5 108/184/5
f 46/195/5 110/206/5 80/197/5
f 35/196/5 108/184/5 66/194/5
f 23/205/5 50/207/5 109/201/5
f 87/208/5 18/209/5 118/210/5
f 66/194/5 108/184/5 46/195/5
f 110/206/5 50/207/5 80/197/5
f 119/204/5 76/211/5 73/202/5
f 80/197/5 50/207/5 23/205/5
f 76/211/5 18/209/5 73/202/5
f 99/200/5 109/201/5 42/203/5
f 30/24/5 87/208/5 111/22/5
f 42/203/5 109/201/5 119/204/5
f 111/22/5 112/30/5 28/212/5
f 76/211/5 118/210/5 18/209/5
f 8/213/5 61/23/5 59/214/5
f 87/208/5 118/210/5 111/22/5
f 112/30/5 85/29/5 28/212/5
f 59/214/5 61/23/5 111/22/5
f 111/22/5 28/212/5 59/214/5
f 79/215/6 10/27/6 83/26/6
f 65/216/6 34/217/6 64/218/6
f 91/219/6 1/220/6 90/221/6
f 90/221/6 33/222/6 91/219/6
f 64/218/6 9/223/6 65/216/6
f 78/224/6 21/225/6 36/226/6
f 52/227/6 2/228/6 93/229/6
f 36/226/6 67/230/6 78/224/6
f 52/227/6 93/229/6 36/226/6
f 9/223/6 12/231/6 14/25/6
f 52/227/6 36/226/6 21/225/6
f 81/232/6 24/233/6 38/234/6
f 67/230/6 12/231/6 78/224/6
f 91/219/6 33/222/6 34/217/6
f 78/224/6 12/231/6 9/223/6
f 24/233/6 55/235/6 95/236/6
f 95/236/6 38/234/6 24/233/6
f 55/235/6 3/237/6 95/236/6
f 33/222/6 64/218/6 34/217/6
f 22/238/6 79/215/6 83/26/6
f 65/216/6 9/223/6 10/27/6
f 81/232/6 38/234/6 69/239/6
f 69/239/6 14/25/6 81/232/6
f 12/231/6 81/232/6 14/25/6
f 53/240/6 22/238/6 57/241/6
f 57/241/6 4/242/6 53/240/6
f 83/26/6 26/243/6 22/238/6
f 9/223/6 14/25/6 10/27/6
f 57/241/6 22/238/6 26/243/6
f 45/28/5 16/191/5 85/29/5
g 3.001_Cube.009_Material.005
usemtl Material.005
f 113/244/3 107/245/3 121/246/3
f 121/246/3 117/32/3 113/244/3
f 123/247/3 106/248/3 108/249/3
f 120/250/3 77/31/3 123/247/3
f 123/247/3 108/249/3 120/250/3
f 121/246/3 102/33/3 117/32/3
f 123/247/3 77/31/3 102/33/3
f 48/36/1 104/251/1 110/252/1
f 49/253/1 105/254/1 109/255/1
f 109/255/1 50/256/1 49/253/1
f 104/251/1 49/253/1 50/256/1
f 108/35/1 106/257/1 48/36/1
f 110/252/1 46/34/1 48/36/1
f 104/251/1 50/256/1 110/252/1
f 116/258/6 115/259/6 111/260/6
f 111/260/6 118/261/6 116/258/6
f 119/38/6 109/262/6 105/263/6
f 118/261/6 76/37/6 103/264/6
f 103/264/6 116/258/6 118/261/6
f 119/38/6 105/263/6 122/39/6
f 122/39/6 103/264/6 76/37/6
