# Blender v2.77 (sub 0) OBJ File: ''
# www.blender.org
mtllib box_t_3.mtl
o Box001
v -0.500000 -0.500000 -0.000000
v -0.500000 0.500000 0.000000
v 0.500000 0.500000 0.000000
v 0.500000 -0.500000 -0.000000
v -0.500000 -0.500000 1.000000
v 0.500000 -0.500000 1.000000
v 0.500000 0.500000 1.000000
v -0.500000 0.500000 1.000000
v 1.500000 1.219362 0.155882
v 1.500000 1.219362 1.155882
v 0.500000 1.219362 1.155882
v 1.500000 2.219362 0.155882
v 1.500000 2.219362 1.155882
v 0.500000 2.219362 1.155882
v -1.500000 5.219362 0.155882
v -1.500000 5.219362 1.155882
v -2.500000 5.219362 1.155882
vt 1.0000 0.0000
vt 1.0000 1.0000
vt 0.0000 1.0000
vt 0.0000 0.0000
vt 0.0000 0.0000
vt 1.0000 0.0000
vt 1.0000 1.0000
vt 0.0000 1.0000
vt 0.0000 0.0000
vt 1.0000 0.0000
vt 1.0000 1.0000
vt 0.0000 1.0000
vt 1.0000 0.0000
vt 0.0000 1.0000
vt 0.0000 0.0000
vt 1.0000 0.0000
vt 1.0000 1.0000
vt 1.0000 1.0000
vt 0.0000 1.0000
vt 0.0000 0.0000
vt 1.0000 1.0000
vt 1.0000 1.0000
vt 0.0000 1.0000
vt 1.0000 1.0000
vt 0.0000 0.0000
vt 1.0000 0.0000
vt 1.0000 1.0000
vt 0.0000 1.0000
vt 1.0000 1.0000
vt 0.0000 0.0000
vt 1.0000 0.0000
vt 1.0000 1.0000
vt 0.0000 1.0000
vt 0.0000 0.0000
vt 1.0000 0.0000
vn 0.0000 0.0000 -1.0000
vn 0.0000 -0.0000 1.0000
vn 0.0000 -1.0000 -0.0000
vn 1.0000 0.0000 0.0000
vn -0.0817 0.7673 -0.6360
vn 0.0000 1.0000 0.0000
vn -0.3240 0.9428 0.0782
vn 0.3039 -0.5854 0.7516
vn 0.5037 -0.7805 0.3702
vn -0.6875 0.3388 0.6423
vn -1.0000 0.0000 0.0000
vn 0.7071 0.0000 0.7071
vn -0.7556 -0.3938 0.5234
vn 0.4862 -0.2937 -0.8230
vn 0.6325 0.6325 0.4472
vn 0.3922 0.3922 0.8321
vn -0.9210 0.2754 0.2754
vn 0.4753 0.2490 -0.8438
vn -0.0706 0.4927 -0.8673
usemtl None
s 1
f 1/1/1 2/2/1 3/3/1
f 3/3/1 4/4/1 1/1/1
f 5/5/2 6/6/2 7/7/2
f 7/7/2 8/8/2 5/5/2
f 1/9/3 4/10/3 6/11/3
f 6/11/3 5/12/3 1/9/3
f 4/4/4 3/13/4 7/7/4
f 7/7/4 6/14/4 4/4/4
f 3/15/5 2/16/6 8/17/7
f 8/8/7 7/7/8 10/18/9 11/19/10
f 2/20/11 1/1/11 5/21/11
f 5/21/11 8/8/11 2/20/11
f 11/19/10 10/18/12 13/22/12 14/23/13
f 3/15/5 8/17/7 11/24/10 9/25/14
f 7/7/8 3/13/5 9/26/14 10/18/9
f 14/23/13 13/22/15 16/27/16 17/28/17
f 9/25/14 11/24/10 14/29/13 12/30/18
f 10/18/12 9/26/14 12/31/18 13/22/12
f 17/32/17 16/33/6 15/34/19
f 12/30/18 14/29/13 17/32/17 15/34/19
f 13/22/15 12/31/18 15/35/19 16/27/16
