# Blender v2.77 (sub 0) OBJ File: 'modified_cube_model.blend'
# www.blender.org
mtllib quadCubeModel_triangulated.mtl
o Cube.001_Cube.003
v 0.000000 -2.000000 1.000000
v 0.000000 0.000000 1.000000
v -1.000000 -1.000000 -1.000000
v -1.000000 1.000000 -1.000000
v 2.000000 -2.000000 1.000000
v 2.000000 0.000000 1.000000
v 1.000000 -1.000000 -1.000000
v 1.000000 1.000000 -1.000000
v -1.000000 1.000000 -3.000000
v -1.000000 -1.000000 -3.000000
v 1.000000 1.000000 -3.000000
v 1.000000 -1.000000 -3.000000
v -1.000000 3.000000 -1.000000
v 1.000000 3.000000 -1.000000
v -1.000000 3.000000 -3.000000
v 1.000000 3.000000 -3.000000
v 3.000000 2.000000 0.000000
v 3.000000 2.000000 -2.000000
v 3.000000 4.000000 0.000000
v 3.000000 4.000000 -2.000000
v -3.000000 -1.000000 -1.000000
v -3.000000 -3.000000 -1.000000
v -3.000000 -1.000000 -3.000000
v -3.000000 -3.000000 -3.000000
v -1.000000 3.000000 -5.000000
v 1.000000 3.000000 -5.000000
v -1.000000 5.000000 -5.000000
v 1.000000 5.000000 -5.000000
vn -0.8944 0.0000 0.4472
vn 0.0000 -1.0000 0.0000
vn 0.8944 0.0000 -0.4472
vn 0.0000 0.0000 1.0000
vn 0.0000 -0.8944 -0.4472
vn 0.0000 0.8944 0.4472
vn 0.0000 0.0000 -1.0000
vn -1.0000 0.0000 0.0000
vn 0.7071 -0.7071 0.0000
vn 1.0000 0.0000 0.0000
vn 0.0000 1.0000 0.0000
vn -0.4472 0.0000 0.8944
vn -0.4472 0.8944 0.0000
vn 0.4472 -0.8944 0.0000
vn 0.4472 0.0000 -0.8944
vn -0.7071 0.7071 0.0000
vn 0.0000 0.7071 0.7071
vn 0.0000 -0.7071 -0.7071
usemtl None
s off
f 2//1 3//1 1//1
f 3//2 12//2 7//2
f 6//3 7//3 8//3
f 2//4 5//4 6//4
f 1//5 7//5 5//5
f 8//6 2//6 6//6
f 11//7 10//7 9//7
f 4//8 15//8 9//8
f 3//9 24//9 10//9
f 7//10 11//10 8//10
f 14//11 15//11 13//11
f 8//4 13//4 4//4
f 16//10 26//10 28//10
f 14//12 17//12 19//12
f 18//10 19//10 17//10
f 14//13 20//13 16//13
f 8//14 18//14 17//14
f 16//15 18//15 11//15
f 21//8 24//8 22//8
f 10//7 23//7 9//7
f 9//16 21//16 4//16
f 3//4 21//4 22//4
f 25//7 28//7 26//7
f 15//8 25//8 9//8
f 16//17 27//17 15//17
f 9//18 26//18 11//18
f 2//1 4//1 3//1
f 3//2 10//2 12//2
f 6//3 5//3 7//3
f 2//4 1//4 5//4
f 1//5 3//5 7//5
f 8//6 4//6 2//6
f 11//7 12//7 10//7
f 4//8 13//8 15//8
f 3//9 22//9 24//9
f 7//10 12//10 11//10
f 14//11 16//11 15//11
f 8//4 14//4 13//4
f 16//10 11//10 26//10
f 14//12 8//12 17//12
f 18//10 20//10 19//10
f 14//13 19//13 20//13
f 8//14 11//14 18//14
f 16//15 20//15 18//15
f 21//8 23//8 24//8
f 10//7 24//7 23//7
f 9//16 23//16 21//16
f 3//4 4//4 21//4
f 25//7 27//7 28//7
f 15//8 27//8 25//8
f 16//17 28//17 27//17
f 9//18 25//18 26//18
