# Blender v2.77 (sub 0) OBJ File: 'Skull_1719.blend'
# www.blender.org
mtllib Skull_45.mtl
o DeathClawSKULL
v 0.412459 -0.260754 -0.031384
v 0.045238 -0.497551 1.065400
v -0.413533 -0.329396 0.052558
v 0.049060 -0.031273 -0.184225
v 0.014302 -0.013798 -0.189806
v 0.015044 -0.014039 -0.189786
v 0.049060 -0.031281 -0.184404
v 0.049060 -0.031386 -0.209842
v 0.049095 -0.031408 -0.209851
v 0.082809 -0.057938 -0.229387
v 0.082794 -0.057929 -0.229366
v 0.082784 -0.057922 -0.229353
v -0.048865 -0.024960 -0.264421
v -0.048802 -0.024965 -0.264085
v -0.046360 -0.024460 -0.256727
v -0.046346 -0.024443 -0.256853
v -0.046713 -0.024534 -0.257762
v -0.011511 -0.014087 -0.218617
v -0.011200 -0.013977 -0.218515
v -0.005834 -0.012310 -0.216696
v -0.006038 -0.012323 -0.216782
v -0.006163 -0.012335 -0.216831
v -0.011086 -0.013937 -0.218478
v 0.901855 0.305224 0.347647
v 1.162836 1.000636 -0.224101
v 0.558869 0.360821 -1.065530
v 0.584063 0.782833 -0.171697
v -0.608183 0.805140 -0.104330
v 0.694216 0.790520 -0.279415
v 0.253873 0.173341 0.930575
v -0.110484 0.515353 0.671663
v 0.572744 0.279069 0.014767
v -0.032503 0.225922 1.069683
v 0.420882 0.152427 0.248444
v -0.632935 0.568104 -1.091130
v 0.013303 0.049701 0.906463
v 0.300360 -0.063541 -0.376725
v 0.260023 -0.159828 -0.157430
v -0.554888 0.312024 -0.065554
v -0.414152 0.649762 0.238418
v 0.088362 -0.061943 -0.232733
v -0.413985 0.167660 -0.210276
v -0.348401 -0.104234 -0.317228
v -0.463467 0.106656 0.461611
v -0.373781 0.137182 0.323783
vn -0.0620 0.9797 0.1907
vn 0.0578 0.0857 0.9946
vn 0.8381 -0.4979 -0.2230
vn -0.4063 -0.7828 -0.4713
vn 0.3758 0.8966 0.2343
vn 0.1092 -0.9911 -0.0764
vn 0.7918 0.5849 0.1759
vn -0.9669 -0.2550 0.0040
vn 0.9669 0.2550 -0.0040
vn 0.8609 -0.5086 0.0097
vn -0.6570 0.1928 0.7288
vn -0.5899 0.5557 0.5859
vn -0.7776 -0.6066 0.1652
vn 0.4421 -0.8867 0.1354
vn -0.9524 0.2708 0.1401
vn -0.5601 -0.0885 -0.8237
vn -0.5314 -0.8384 0.1216
vn -0.5232 -0.8479 0.0858
vn 0.7090 0.7051 -0.0131
vn -0.7437 -0.6586 -0.1146
vn -0.9549 -0.2746 0.1125
vn -0.1283 0.8317 -0.5403
vn 0.0620 -0.9797 -0.1907
vn 0.1715 0.9570 -0.2342
vn -0.9027 -0.3786 0.2042
vn 0.4063 0.7828 0.4713
vn 0.7519 0.6078 -0.2553
vn -0.2778 -0.7574 -0.5910
vn 0.9995 -0.0280 -0.0150
vn -0.8752 0.1851 0.4469
vn 0.0499 -0.2509 0.9667
vn -0.7217 0.6853 -0.0976
vn -0.4000 -0.8349 -0.3781
vn 0.0538 -0.6803 0.7310
vn -0.8182 -0.5693 -0.0799
vn -0.7913 0.5107 0.3362
vn 0.2203 -0.9728 -0.0721
vn 0.8642 -0.1641 -0.4757
vn 0.0533 -0.9817 -0.1828
vn -0.8137 0.0326 0.5804
vn -0.5773 -0.7714 0.2677
vn -0.8527 -0.3560 0.3822
vn -0.9967 -0.0801 -0.0093
vn -0.1309 -0.8214 -0.5552
vn 0.7027 0.7051 0.0950
vn -0.0124 -0.7571 -0.6532
vn 0.9746 0.0735 0.2115
vn 0.0755 -0.9860 0.1490
vn -0.5129 -0.8570 0.0498
vn 0.0862 -0.9913 0.0992
vn 0.4621 0.8851 -0.0556
vn -0.1845 0.6646 0.7241
vn -0.2798 0.3719 0.8851
vn -0.2979 -0.8527 -0.4292
vn -0.5032 -0.8640 0.0164
g DeathClawSKULL_DeathClawSKULL_Material.001
usemtl Material.001
s off
f 2//1 1//1 3//1
f 28//2 27//2 25//2
f 25//3 24//3 26//3
f 24//4 27//4 29//4
f 32//5 28//5 30//5
f 30//6 26//6 32//6
f 34//7 26//7 30//7
f 36//8 33//8 31//8
f 36//9 31//9 33//9
f 34//10 37//10 26//10
f 44//11 36//11 31//11
f 40//12 31//12 28//12
f 28//13 35//13 40//13
f 30//14 36//14 34//14
f 39//15 40//15 35//15
f 41//16 10//16 37//16
f 38//17 10//17 41//17
f 12//18 11//18 38//18
f 39//19 45//19 42//19
f 35//20 42//20 44//20
f 43//21 42//21 35//21
f 26//22 28//22 25//22
f 1//23 2//23 3//23
f 28//24 26//24 35//24
f 24//25 27//25 26//25
f 29//26 27//26 24//26
f 28//27 31//27 30//27
f 34//28 28//28 32//28
f 32//29 26//29 27//29
f 27//30 37//30 32//30
f 37//31 27//31 28//31
f 34//32 32//32 37//32
f 34//33 36//33 28//33
f 42//34 40//34 39//34
f 39//35 35//35 44//35
f 44//36 31//36 39//36
f 42//37 45//37 44//37
f 45//38 39//38 31//38
f 45//39 36//39 44//39
f 40//40 45//40 31//40
f 45//41 43//41 36//41
f 42//42 43//42 40//42
f 45//43 40//43 43//43
f 26//44 37//44 35//44
f 37//45 28//45 36//45
f 43//46 35//46 37//46
f 36//47 38//47 37//47
f 43//48 37//48 10//48
f 11//49 38//49 36//49
f 43//50 10//50 36//50
f 11//51 36//51 10//51
f 24//52 25//52 27//52
f 36//53 30//53 31//53
f 41//54 37//54 38//54
f 38//55 11//55 10//55
l 6 5
l 13 14
l 19 23
l 20 21
l 18 19
l 15 16
l 16 17
l 4 7
l 8 9
l 20 22
