# Blender v2.77 (sub 0) OBJ File: 'simple_model.blend'
# www.blender.org
mtllib 1.mtl
o 1
v 0.000000 0.000000 -2.000000
v 0.000000 0.000000 0.000000
v -2.000000 0.000000 -0.000000
v -2.000000 0.000000 -2.000000
v 0.000000 2.000000 -2.000000
v -0.000001 2.000000 0.000001
v -2.000000 2.000000 -0.000000
v -0.000000 2.000000 -0.999999
v -1.000000 2.000000 0.000000
v -0.000000 2.000000 -0.499999
v -1.500000 2.000000 -0.000000
v 0.000000 2.000000 -1.500000
v -0.500001 2.000000 0.000000
v -0.000000 2.000000 -0.249999
v -1.750000 2.000000 -0.000000
v -2.000000 0.750000 -2.000000
v 0.000000 2.000000 -1.250000
v -0.750001 2.000000 0.000000
v -0.000000 2.000000 -0.749999
v -1.250000 2.000000 -2.000000
v -1.250000 2.000000 0.000000
v -2.000000 2.000000 -1.250000
v 0.000000 2.000000 -1.750000
v -0.250001 2.000000 0.000000
v -2.000000 0.750000 -1.250000
v -1.250000 2.000000 -1.250000
vt 0.6667 0.2083
vt 0.7917 0.0000
vt 1.0000 0.3333
vt 0.0000 0.3546
vt 0.1250 0.1205
vt 0.1250 0.3546
vt 0.7917 0.8750
vt 0.6667 0.8750
vt 0.7917 0.6667
vt 0.3333 0.0000
vt 0.0000 0.0000
vt 0.1667 0.3546
vt 0.3333 0.6879
vt 0.0000 0.6879
vt 0.3333 0.5417
vt 0.3333 0.5000
vt 0.6667 0.6667
vt 0.6667 0.9167
vt 0.6667 0.9583
vt 0.5833 1.0000
vt 0.6667 0.0000
vt 0.3333 0.3333
vt 0.3333 0.0000
vt 1.0000 0.0000
vt 0.6667 0.3333
vt 0.0000 0.1205
vt 0.3333 0.3212
vt 0.1250 0.3212
vt 0.0417 0.3546
vt 0.0833 0.3546
vt 0.2083 0.3546
vt 0.0000 0.3546
vt 0.2500 0.3546
vt 0.1250 0.3546
vt 0.2917 0.3546
vt 0.3333 0.3546
vt 0.6667 0.3333
vt 0.3333 0.6250
vt 0.3333 0.5833
vt 0.3333 0.6667
vt 0.3333 0.3750
vt 0.3333 0.3333
vt 0.3333 0.4583
vt 0.3333 0.4167
vt 0.4583 1.0000
vt 0.4167 1.0000
vt 0.4583 0.7917
vt 0.3750 1.0000
vt 0.3333 1.0000
vt 0.3333 0.7917
vt 0.4583 0.6667
vt 0.6667 0.7083
vt 0.5417 1.0000
vt 0.5000 1.0000
vt 0.6667 0.6667
vt 0.6667 0.7500
vt 0.6667 0.7917
vt 0.6667 1.0000
vt 0.6250 1.0000
vt 0.6667 0.8750
vt 0.6667 0.8333
vn 0.0000 0.0000 -1.0000
vn -0.8575 0.5145 -0.0000
vn -1.0000 -0.0000 -0.0000
vn -0.0000 -0.0000 1.0000
vn 1.0000 -0.0000 0.0000
vn 0.0000 1.0000 0.0000
vn 0.0000 -1.0000 0.0000
g 1_1_Material.003
usemtl Material.003
s off
f 16/1/1 20/2/1 1/3/1
f 20/4/2 25/5/2 26/6/2
f 22/7/1 26/8/1 25/9/1
f 3/10/3 25/5/3 4/11/3
g 1_1_Material_2
usemtl Material_2
f 9/12/4 3/13/4 2/14/4
f 17/15/5 8/16/5 1/17/5
g 1_1_Material.003
usemtl Material.003
f 13/18/6 24/19/6 10/20/6
g 1_1_Material_2
usemtl Material_2
f 1/21/7 3/22/7 4/23/7
g 1_1_Material.003
usemtl Material.003
f 5/24/1 1/3/1 20/2/1
f 4/25/1 16/1/1 1/3/1
f 20/4/2 16/26/2 25/5/2
f 3/10/3 7/27/3 25/5/3
f 25/5/3 16/26/3 4/11/3
f 7/27/3 22/28/3 25/5/3
g 1_1_Material_2
usemtl Material_2
f 24/29/4 13/30/4 2/14/4
f 9/12/4 21/31/4 3/13/4
f 6/32/4 24/29/4 2/14/4
f 21/31/4 11/33/4 3/13/4
f 2/14/4 13/30/4 18/34/4
f 11/33/4 15/35/4 3/13/4
f 2/14/4 18/34/4 9/12/4
f 7/36/4 3/13/4 15/35/4
f 2/37/5 1/17/5 8/16/5
f 23/38/5 12/39/5 1/17/5
f 1/17/5 5/40/5 23/38/5
f 14/41/5 6/42/5 2/37/5
f 8/16/5 19/43/5 2/37/5
f 10/44/5 14/41/5 2/37/5
f 1/17/5 12/39/5 17/15/5
f 19/43/5 10/44/5 2/37/5
g 1_1_Material.003
usemtl Material.003
f 17/45/6 12/46/6 26/47/6
f 23/48/6 5/49/6 20/50/6
f 26/47/6 22/51/6 15/52/6
f 23/48/6 20/50/6 26/47/6
f 19/53/6 8/54/6 26/47/6
f 12/46/6 23/48/6 26/47/6
f 22/51/6 7/55/6 15/52/6
f 11/56/6 21/57/6 26/47/6
f 26/47/6 15/52/6 11/56/6
f 8/54/6 17/45/6 26/47/6
f 6/58/6 14/59/6 24/19/6
f 10/20/6 19/53/6 18/60/6
f 26/47/6 21/57/6 9/61/6
f 9/61/6 18/60/6 26/47/6
f 24/19/6 14/59/6 10/20/6
f 18/60/6 13/18/6 10/20/6
f 19/53/6 26/47/6 18/60/6
g 1_1_Material_2
usemtl Material_2
f 1/21/7 2/37/7 3/22/7
