# Blender v2.77 (sub 0) OBJ File: 'simple_model.blend'
# www.blender.org
mtllib 6.mtl
o 6_Cube.005
v 2.000000 -2.000000 0.000000
v -0.000000 -2.000000 -0.000000
v 0.000000 -2.000000 -2.000000
v 2.000000 0.000000 -2.000000
v 1.999999 0.000000 0.000001
v -0.000000 0.000000 -0.000000
v 0.000000 0.000000 -2.000000
v 2.494497 -0.515044 -2.517479
v 0.494497 -2.515044 -2.517480
v 2.494496 -2.515044 -0.517480
vt 0.8060 0.1806
vt 0.4181 0.3084
vt 0.8060 0.1806
vt 0.8060 0.3084
vt 0.6767 0.1806
vt 0.4181 0.1806
vt 0.5474 0.3084
vt 0.4181 0.3084
vt 0.4181 0.8194
vt 0.2887 0.6917
vt 0.4181 0.6917
vt 0.4181 0.6917
vt 0.6767 0.3084
vt 0.5474 0.1806
vt 0.2887 0.8194
vn 0.8280 0.3965 0.3965
vn 0.0000 1.0000 0.0000
vn -0.0000 -0.0000 1.0000
vn -1.0000 -0.0000 -0.0000
vn 0.0000 -1.0000 0.0000
vn -0.4131 -0.8116 0.4131
vn -0.4150 0.4150 -0.8096
vn 0.5774 -0.5774 -0.5774
vn 1.0000 0.0000 0.0000
vn 0.0000 0.0000 -1.0000
g 6_Cube.005_Material.006
usemtl Material.006
s off
f 4/1/1 10/2/1 8/3/1
g 6_Cube.005_Material_2
usemtl Material_2
f 7/4/2 5/5/2 4/1/2
f 5/6/3 2/7/3 1/8/3
f 2/9/4 7/10/4 3/11/4
g 6_Cube.005_Material.006
usemtl Material.006
f 3/11/5 1/8/5 2/9/5
f 3/11/6 10/2/6 1/8/6
f 3/11/7 8/3/7 9/12/7
f 8/3/8 10/2/8 9/12/8
f 5/5/9 1/8/9 4/1/9
f 7/4/10 4/1/10 3/11/10
f 4/1/1 1/8/1 10/2/1
g 6_Cube.005_Material_2
usemtl Material_2
f 7/4/2 6/13/2 5/5/2
f 5/6/3 6/14/3 2/7/3
f 2/9/4 6/15/4 7/10/4
g 6_Cube.005_Material.006
usemtl Material.006
f 3/11/6 9/12/6 10/2/6
f 3/11/7 4/1/7 8/3/7
